<svg width="512" height="509" viewBox="0 0 512 509" fill='currentColor' xmlns="http://www.w3.org/2000/svg">
<path fill-rule="evenodd" clip-rule="evenodd" d="M180.431 3.30328C129.571 20.1763 90.1816 47.5363 53.9666 91.1443C47.8256 98.5383 34.1796 120.195 27.9846 132.379C14.0316 159.819 5.1216 188.897 1.3166 219.411C-0.626397 234.987 -0.375397 270.2 1.7826 284.911C10.2626 342.712 34.4136 391.516 74.7036 432.266C115.183 473.208 165.772 498.56 223.931 507.05C238.304 509.148 273.785 509.421 288.431 507.546C363.304 497.963 428.675 458.891 471.026 398.411C482.325 382.277 492.868 362.532 499.967 344.212C504.561 332.357 511.431 308.989 511.431 305.22C511.431 300.982 507.819 294.619 504.141 292.375C496.13 287.488 490.021 288.772 478.139 297.838C445.506 322.737 411.837 335.6 371.81 338.459C356.183 339.576 348.706 339.265 331.431 336.782C255.997 325.94 194.132 270.91 173.825 196.589C165.393 165.726 165.244 129.61 173.421 97.9783C180.121 72.0583 188.255 55.4873 207.968 27.5973C213.278 20.0853 213.894 14.7863 210.219 8.24828C205.057 -0.93672 197.161 -2.24672 180.431 3.30328Z"/>
</svg>
