<svg width="20" height="15" viewBox="0 0 20 15" fill="none" xmlns="http://www.w3.org/2000/svg">
<path fill-rule="evenodd" clip-rule="evenodd" d="M6.60146 0.127073C4.92905 0.424049 3.43544 1.05187 2.70653 1.7643C2.02334 2.43205 1.03537 5.03615 0.495242 7.59248C0.225893 8.86746 0.0898155 9.85929 0.0257056 11.0136C-0.0183855 11.8083 -0.011276 11.9354 0.0906262 12.1775C0.230383 12.5096 0.85427 13.1811 1.37151 13.5563C1.89462 13.9356 2.91633 14.4176 3.68427 14.6473C4.38194 14.8559 5.4849 15.0448 5.68939 14.9906C5.76048 14.9718 6.03164 14.668 6.29195 14.3156L6.76529 13.6749L6.49625 13.6225C4.86681 13.3047 4.21623 12.6032 4.96167 11.9676C5.20913 11.7567 5.53223 11.7637 6.06089 11.9917C7.07411 12.4285 7.86052 12.538 9.9691 12.5356C11.915 12.5333 12.718 12.4358 13.7938 12.0708C14.6264 11.7882 14.7947 11.7906 15.0892 12.089C15.382 12.3856 15.3839 12.6876 15.0949 12.9804C14.8957 13.1822 14.6131 13.2938 13.5431 13.5931L13.2506 13.6749L13.7042 14.3015C13.9538 14.6461 14.2176 14.9505 14.2905 14.9778C14.4799 15.0488 15.5666 14.8716 16.3163 14.6473C17.0839 14.4177 18.1047 13.9363 18.632 13.555C19.1283 13.1962 19.7782 12.4917 19.9165 12.1627C20.0113 11.9372 20.0182 11.7929 19.973 10.9836C19.8327 8.46635 19.128 5.48427 18.1348 3.2045C17.7261 2.26637 17.3767 1.76076 16.9197 1.44628C16.0224 0.829011 14.7776 0.368003 13.3467 0.123155C12.3299 -0.0507967 12.3003 -0.0354424 12.0283 0.80759L11.919 1.14614L11.3806 1.09193C10.6897 1.0223 9.31091 1.0223 8.62005 1.09187L8.08166 1.14614L7.9406 0.716539C7.79186 0.263808 7.58631 -0.00833538 7.3994 0.000194787C7.33785 0.00297499 6.97876 0.0600954 6.60146 0.127073ZM7.72401 6.24472C7.96978 6.38328 8.29052 6.87304 8.4261 7.31686C8.59117 7.85698 8.56947 8.82405 8.38138 9.31507C8.0927 10.0685 7.42946 10.5313 6.87823 10.364C5.71222 10.01 5.31995 7.86513 6.19691 6.63856C6.56703 6.12087 7.21019 5.95501 7.72401 6.24472ZM13.2744 6.18077C13.6057 6.33621 13.8245 6.58321 14.0257 7.02892C14.2556 7.53814 14.3415 8.15174 14.2562 8.67404C14.0643 9.84685 13.3421 10.5841 12.604 10.3606C12.2324 10.248 11.802 9.79156 11.6182 9.31507C11.4963 8.99907 11.4719 8.82019 11.4719 8.2409C11.4719 7.34132 11.6127 6.93635 12.0907 6.46119C12.512 6.04233 12.8225 5.96878 13.2744 6.18077Z" fill="white"/>
</svg>
