<svg width="18" height="18" viewBox="0 0 18 18" fill="none" xmlns="http://www.w3.org/2000/svg">
<path fill-rule="evenodd" clip-rule="evenodd" d="M8.13863 0.022598C6.43174 0.199436 4.81536 0.85012 3.43979 1.91414C3.04943 2.21608 2.21478 3.05054 1.91278 3.44081C1.35858 4.15697 0.825088 5.11125 0.526992 5.91975C0.360154 6.37222 0.149563 7.21182 0.0676239 7.75117C-0.0224532 8.34388 -0.0225588 9.65779 0.0674125 10.2518C0.147978 10.7838 0.360964 11.6294 0.529247 12.0855C0.830091 12.9009 1.35872 13.8469 1.91316 14.5621C2.19971 14.9318 3.00469 15.7458 3.36528 16.0304C4.09319 16.605 5.08414 17.1648 5.91699 17.472C6.37386 17.6405 7.21975 17.8534 7.75112 17.9335C8.27175 18.0121 9.62403 18.0237 10.1114 17.9539C11.7913 17.7131 13.1335 17.1573 14.4972 16.1379C14.8814 15.8507 15.7254 15.0253 16.0323 14.6366C16.6014 13.9158 17.1728 12.9049 17.4745 12.0855C17.6428 11.6284 17.8556 10.7826 17.936 10.2518C17.984 9.93451 18 9.62278 18 9.00147C18 8.38016 17.984 8.06843 17.936 7.75117C17.8554 7.21918 17.6424 6.37352 17.4742 5.91746C17.1667 5.08423 16.6055 4.09164 16.0319 3.36632C15.744 3.00229 14.9296 2.19611 14.5677 1.91696C13.2719 0.91739 11.8846 0.322423 10.2699 0.0738779C9.82712 0.00569259 8.58912 -0.0240681 8.13863 0.022598ZM8.47329 2.433V3.71852H7.38123C6.62546 3.71852 6.28917 3.70686 6.28917 3.68062C6.28917 3.60564 6.73001 2.7803 6.93627 2.46913C7.22757 2.02973 7.78022 1.4815 8.12101 1.29385C8.26632 1.21387 8.40505 1.14818 8.42925 1.14794C8.46367 1.14759 8.47329 1.42783 8.47329 2.433ZM9.7517 1.22289C10.2036 1.45259 10.7019 1.92534 11.0654 2.46913C11.2716 2.77769 11.7142 3.60412 11.7142 3.68062C11.7142 3.70686 11.3779 3.71852 10.6222 3.71852H9.53012V2.433C9.53012 1.56663 9.54206 1.14748 9.56675 1.14748C9.5869 1.14748 9.67011 1.1814 9.7517 1.22289ZM6.26452 1.57892C6.24902 1.60315 6.13558 1.77351 6.01246 1.95753C5.77045 2.3192 5.47676 2.87927 5.26451 3.38393L5.13117 3.70091L4.10732 3.71024C3.51979 3.71559 3.08346 3.70612 3.08346 3.68798C3.08346 3.64177 3.72013 3.04089 4.02982 2.79485C4.58853 2.35097 5.23759 1.96088 5.90114 1.67007C6.22224 1.52937 6.31035 1.50725 6.26452 1.57892ZM11.996 1.62569C12.639 1.88688 13.4006 2.33784 13.9864 2.80421C14.2999 3.05382 14.9199 3.64146 14.9199 3.689C14.9199 3.70584 14.4592 3.71538 13.8961 3.71024L12.8722 3.70091L12.7389 3.38393C12.5266 2.87927 12.233 2.3192 11.9909 1.95753C11.6939 1.51362 11.7065 1.5349 11.7416 1.5349C11.7586 1.5349 11.8731 1.57575 11.996 1.62569ZM4.77439 4.78891C4.77439 4.79652 4.72792 4.99861 4.67113 5.23797C4.4678 6.09507 4.38812 6.67725 4.25848 8.25305L4.24037 8.47318H2.65791H1.07549V8.33205C1.07549 8.11232 1.17282 7.50675 1.27329 7.10147C1.44915 6.39215 1.73657 5.67642 2.10494 5.03045L2.25057 4.77511H3.51246C4.20652 4.77511 4.77439 4.78134 4.77439 4.78891ZM8.47329 6.62414V8.47318H6.88656H5.29988L5.32045 8.20022C5.41606 6.93312 5.5173 6.23299 5.73015 5.36757L5.87581 4.77511H7.17455H8.47329V6.62414ZM12.2733 5.36757C12.4866 6.23525 12.5996 7.02015 12.6809 8.20022L12.6997 8.47318H11.1149H9.53012V6.62414V4.77511H10.8289H12.1276L12.2733 5.36757ZM15.9142 5.06567C16.2571 5.68293 16.4383 6.10539 16.6281 6.73008C16.762 7.17082 16.9279 8.04934 16.9279 8.31747V8.47318H15.3455H13.763L13.7444 8.25305C13.7342 8.132 13.7087 7.81105 13.6877 7.53985C13.6265 6.74783 13.4211 5.50902 13.2424 4.85435L13.2208 4.77511H14.4868H15.7528L15.9142 5.06567ZM4.25848 9.74989C4.38812 11.3257 4.4678 11.9079 4.67113 12.765C4.72792 13.0043 4.77439 13.2064 4.77439 13.214C4.77439 13.2216 4.2062 13.2278 3.51172 13.2278H2.24909L2.06891 12.9021C1.69045 12.2177 1.44925 11.6112 1.27329 10.9015C1.17282 10.4962 1.07549 9.89063 1.07549 9.67089V9.52977H2.65791H4.24037L4.25848 9.74989ZM8.47329 11.3788V13.2278H7.17455H5.87581L5.73015 12.6354C5.5173 11.77 5.41606 11.0698 5.32045 9.80272L5.29988 9.52977H6.88656H8.47329V11.3788ZM12.6809 9.80272C12.5906 11.1134 12.4551 11.9857 12.1859 12.9901L12.1222 13.2278H10.8262H9.53012V11.3788V9.52977H11.1149H12.6997L12.6809 9.80272ZM16.9279 9.67945C16.9279 9.89172 16.8054 10.6143 16.7026 11.009C16.5314 11.6658 16.2923 12.2551 15.9345 12.9021L15.7543 13.2278H14.4876H13.2208L13.2424 13.1486C13.4211 12.4939 13.6265 11.2551 13.6877 10.4631C13.7087 10.1919 13.7342 9.87098 13.7444 9.74989L13.763 9.52977H15.3455H16.9279V9.67945ZM5.26395 14.619C5.47482 15.1225 5.80878 15.7531 6.05667 16.1159C6.1824 16.2999 6.27283 16.4549 6.25761 16.4603C6.2146 16.4757 5.67565 16.2376 5.27723 16.0272C4.86485 15.8095 4.41514 15.5142 4.02982 15.2081C3.72013 14.9621 3.08346 14.3612 3.08346 14.315C3.08346 14.2968 3.51979 14.2873 4.10732 14.2927L5.13117 14.302L5.26395 14.619ZM8.47329 15.5699C8.47329 16.4363 8.46135 16.8555 8.43665 16.8555C8.37965 16.8555 8.12313 16.718 7.90965 16.5732C7.63677 16.388 7.18832 15.9083 6.93803 15.5338C6.73177 15.2253 6.28917 14.3988 6.28917 14.3223C6.28917 14.2961 6.62546 14.2844 7.38123 14.2844H8.47329V15.5699ZM11.7142 14.3223C11.7142 14.3965 11.2911 15.1883 11.0816 15.5063C10.8292 15.8894 10.3685 16.3873 10.0953 16.5724C9.88014 16.7181 9.62372 16.8555 9.56675 16.8555C9.54206 16.8555 9.53012 16.4363 9.53012 15.5699V14.2844H10.6222C11.3779 14.2844 11.7142 14.2961 11.7142 14.3223ZM14.8888 14.3473C14.7864 14.5386 13.9511 15.2558 13.3967 15.6284C12.9188 15.9498 11.8393 16.4937 11.7458 16.4603C11.7306 16.4549 11.821 16.2999 11.9468 16.1159C12.236 15.6928 12.6358 14.9127 12.8448 14.3637L12.875 14.2844H13.8987C14.8706 14.2844 14.9207 14.2876 14.8888 14.3473Z" fill="white"/>
</svg>
