<svg width="512" height="512" viewBox="0 0 512 512" fill="currentColor" xmlns="http://www.w3.org/2000/svg">
    <path class="" fill-rule="evenodd" clip-rule="evenodd" fill="currentColor" d="M247.243 1.42068C241.526 3.44468 234.606 10.5297 232.602 16.4117C230.227 23.3817 230.268 66.2517 232.656 73.2607C235.799 82.4847 246.09 89.7567 256 89.7567C265.91 89.7567 276.201 82.4847 279.344 73.2607C281.732 66.2517 281.773 23.3817 279.398 16.4117C275.089 3.76668 260.213 -3.16932 247.243 1.42068ZM83.5 69.2607C78.288 71.1067 70.513 79.2447 69.101 84.3327C68.501 86.4907 68.009 90.5307 68.006 93.3107C67.996 102.044 71.162 106.613 90.262 125.428C108.524 143.418 112.061 145.757 121 145.757C134.023 145.757 146 133.78 146 120.757C146 111.818 143.661 108.281 125.671 90.0187C106.528 70.5857 102.331 67.7277 93.054 67.8007C89.999 67.8247 85.7 68.4817 83.5 69.2607ZM408.351 70.2687C404.802 72.0377 398.282 77.8857 386.329 90.0187C368.339 108.281 366 111.818 366 120.757C366 133.78 377.977 145.757 391 145.757C399.939 145.757 403.476 143.418 421.738 125.428C440.838 106.613 444.004 102.044 443.994 93.3107C443.985 84.9857 442.272 80.7487 436.64 75.1167C428.736 67.2117 418.132 65.3947 408.351 70.2687ZM240.5 128.357C239.4 128.622 234.9 129.527 230.5 130.368C180.988 139.831 141.266 179.636 130.32 230.757C127.774 242.646 127.778 268.9 130.327 280.757C141.407 332.29 179.527 370.412 231 381.436C242.869 383.978 269.131 383.978 281 381.436C332.473 370.412 370.593 332.29 381.673 280.757C384.222 268.9 384.226 242.646 381.68 230.757C370.772 179.812 332.847 141.567 282 130.238C274.739 128.621 245.004 127.273 240.5 128.357ZM16.243 232.421C7.485 235.521 0 246.275 0 255.757C0 265.497 7.502 276.036 16.655 279.155C23.625 281.53 66.495 281.489 73.504 279.101C82.728 275.958 90 265.667 90 255.757C90 245.847 82.728 235.556 73.504 232.413C66.738 230.108 22.763 230.114 16.243 232.421ZM438.591 232.33C432.896 234.417 428.422 238.182 425.272 243.541C422.908 247.563 422.5 249.361 422.5 255.757C422.5 262.153 422.908 263.951 425.272 267.973C428.509 273.479 432.917 277.111 438.944 279.237C445.348 281.497 488.658 281.434 495.345 279.155C504.498 276.036 512 265.497 512 255.757C512 246.017 504.498 235.478 495.345 232.359C488.88 230.156 444.585 230.134 438.591 232.33ZM112 367.502C105.86 369.667 74.252 400.604 70.512 408.108C65.638 417.889 67.455 428.493 75.36 436.397C80.992 442.029 85.229 443.742 93.554 443.751C102.287 443.761 106.856 440.595 125.671 421.495C139.884 407.067 142.925 403.454 144.326 399.329C147.641 389.569 145.58 380.495 138.421 373.336C131.282 366.197 121.7 364.081 112 367.502ZM382.243 367.421C373.485 370.521 366 381.275 366 390.757C366 399.696 368.339 403.233 386.329 421.495C405.144 440.595 409.713 443.761 418.446 443.751C426.771 443.742 431.008 442.029 436.64 436.397C442.272 430.765 443.985 426.528 443.994 418.203C444.004 409.47 440.838 404.901 421.738 386.086C407.31 371.873 403.697 368.832 399.572 367.431C393.612 365.407 387.945 365.404 382.243 367.421ZM247.627 423.164C241.924 425.287 236.839 429.829 234.004 435.333C231.558 440.082 231.493 440.773 231.201 465.069C230.851 494.118 231.391 496.991 238.558 504.157C248.571 514.17 263.421 514.179 273.421 504.178C280.401 497.198 281 494.236 281 466.705C281 441.112 280.464 437.676 275.446 431.098C269.62 423.458 256.719 419.779 247.627 423.164Z"/>
</svg>
